<?xml version="1.0"?>
<svg version="1.1" xmlns="http://www.w3.org/2000/svg" width="345px" height="80px" style=""><path fill="#ffffff" d="M81.948,51.932l3.686-0.076q1.368,0,1.368,0.19q0,0.494-5.548,0.874q-3.534,6.916-3.534,9.424q0,1.748,1.102,1.748q0.418,0,1.045-0.513t0.76-0.513t0.133,0.19q-0.19,0.684-1.159,1.14t-1.634,0.456t-1.045-0.076q-0.912-0.342-0.912-2.204q0-3.838,2.926-9.766l-4.56,0.114q-5.092,4.978-10.222,8.74q-7.676,5.586-12.008,5.586q-0.266,0-0.532-0.038q-5.852-0.494-5.852-6.004q0-3.268,2.052-6.916q2.736-4.864,7.486-8.303t8.512-3.439t3.762,2.774q0,1.862-1.14,4.142t-2.318,2.888q-0.114,0.038-0.247,0.038t-0.133-0.076l1.254-2.052q1.292-2.014,1.292-3.534t-0.665-2.451t-2.109-0.931q-2.964,0-7.087,3.306t-6.27,8.132t-2.147,7.524q0,4.066,4.142,4.066q3.952,0,10.716-5.092q3.002-2.242,9.766-8.474q-1.33,0.076-2.47,0.266q-2.432,0.456-2.28-0.152q0.152-1.406,1.444-1.406q2.508,0.304,4.218,0.304q3.268-3.002,9.766-9.842q4.37-4.598,5.32-4.598q0.418,0,0.418,0.646t-0.342,2.014t-0.76,1.672q-0.874,0.608-1.634,1.653t-2.166,3.914t-2.394,4.655z M84.988,42.66l-9.728,9.12l2.242,0q0.798,0.038,1.976,0.038q1.102-2.166,5.51-9.158z M93.43046,62.23q-1.102,0.646-2.717,0.646t-2.47-1.064t-1.463-3.382q-0.684,0.684-0.95,0.684q-0.19,0-0.19-0.266t0.19-0.456q1.254-1.558,4.256-4.484l4.788-4.484q2.052-1.938,2.432-1.938q1.216,0,1.216,0.912q0,0.456-0.361,0.893t-0.532,0.684t-0.361,0.475q-0.684,1.178-1.387,4.864t-1.083,5.13q3.154-0.038,6.498-4.104q0.38-0.38,0.57-0.38t0.19,0.247t-0.342,0.665q-2.204,2.584-4.104,3.61q-1.14,0.57-2.964,0.95z M88.30046,58.012q0,1.292,0.855,2.109t1.919,0.817t1.634-0.418q0.76-0.418,1.501-3.496t0.893-5.434l0.152-1.292q-2.09,1.558-4.465,4.028t-2.451,3.268q-0.038,0.228-0.038,0.418z M108.75092,62.23q-1.102,0.646-2.717,0.646t-2.47-1.064t-1.463-3.382q-0.684,0.684-0.95,0.684q-0.19,0-0.19-0.266t0.19-0.456q1.254-1.558,4.256-4.484l4.788-4.484q2.052-1.938,2.432-1.938q1.216,0,1.216,0.912q0,0.456-0.361,0.893t-0.532,0.684t-0.361,0.475q-0.684,1.178-1.387,4.864t-1.083,5.13q3.154-0.038,6.498-4.104q0.38-0.38,0.57-0.38t0.19,0.247t-0.342,0.665q-2.204,2.584-4.104,3.61q-1.14,0.57-2.964,0.95z M103.62092,58.012q0,1.292,0.855,2.109t1.919,0.817t1.634-0.418q0.76-0.418,1.501-3.496t0.893-5.434l0.152-1.292q-2.09,1.558-4.465,4.028t-2.451,3.268q-0.038,0.228-0.038,0.418z M126.40838,47.657q0.513,0.361,0.513,0.855t-0.475,0.855t-1.045,0.361t-1.045-0.418t-0.475-0.95q0-1.064,1.444-1.064q0.57,0,1.083,0.361z M118.44738,63.218q-1.938,0-1.938-2.508q0-2.052,2.242-5.681t3.61-3.667q0.38,0,0.855,0.304t0.475,0.608q-0.19,0.266-0.456,0.589t-0.57,0.703t-0.836,1.083t-1.026,1.349q-2.85,3.686-2.85,5.073t0.95,1.387q0.798,0,2.166-0.874q3.192-1.976,5.054-4.332q0.684-0.874,0.931-0.874t0.247,0.304t-0.874,1.216t-1.387,1.444t-0.703,0.703t-0.703,0.646t-0.779,0.665t-0.76,0.57t-0.874,0.551t-0.874,0.399q-0.798,0.342-1.9,0.342z M140.03784,51.21l0.532-0.114q0.494,0,0.779,0.304t0.285,0.475t-0.038,0.38t-1.102,1.919q-1.33,2.318-2.204,3.914q-3.078,5.738-4.712,7.866q-3.496,4.636-6.65,4.636q-1.102,0-1.919-0.931t-0.855-2.071q0.114-0.456,0.342-0.456q0.114,0,0.19,0.266q0.19,0.988,0.722,1.52t1.064,0.532q2.166,0,4.636-2.85q1.634-1.9,3.61-5.548l1.9-3.762l-2.85,2.888q-2.736,2.622-3.743,2.622t-1.919-0.684q-1.026-0.76-1.026-2.014q0-2.774,3.895-6.612t7.087-3.838q1.292,0,1.672,0.836q0.114,0.304,0.19,0.513t0.114,0.209z M128.67584,60.558q0,1.368,0.95,1.368q2.204,0,6.004-4.826l4.028-5.548q-0.228-0.532-0.95-0.532q-2.356,0-6.194,3.629t-3.838,5.909z M149.2023,50.792q1.026,0,1.026,0.798q0,0.228-0.114,0.456q-3.42,4.75-4.104,7.182q8.854-8.854,10.754-8.854q0.19-0.038,0.342-0.038q1.064,0,1.064,0.95q0,0.19-0.076,0.38t-1.52,2.052q-1.672,1.976-2.831,3.8t-1.159,3.04t0.532,1.216q1.672,0,5.814-4.598q0.076-0.076,0.266-0.342q0.57-0.684,0.684-0.684t0.114,0.38t-0.532,0.988q-4.712,5.358-6.688,5.358q-1.862,0-1.862-2.052t1.52-4.712l2.432-3.952q-2.584,1.9-4.598,4.161t-3.667,4.389t-1.919,2.128q-0.57,0-0.893-0.475t-0.323-1.178t0.494-1.881t1.254-2.85l-2.28,2.394q-0.836,0.836-1.045,0.836t-0.209-0.247t0.304-0.551q1.406-1.406,2.432-2.698q0.988-1.292,4.066-4.94q0.342-0.456,0.722-0.456z M178.24076,62.344q-2.584,0-2.584-2.394q0-1.368,1.216-3.743t2.546-4.009q-2.356,1.14-5.434,4.123t-4.294,6.251q-0.19,0.304-0.646,0.304q-0.912,0-0.912-1.026q0.38-2.09,1.71-4.788q0.418-0.874,2.47-5.092q-2.964,1.938-5.035,4.161t-3.838,4.465t-1.995,2.242q-0.494,0-0.855-0.456t-0.361-0.912q0-0.684,1.976-5.016l-2.28,2.394q-0.836,0.836-1.045,0.836t-0.209-0.247t0.304-0.551q1.406-1.406,2.508-2.812t3.648-5.016q0.418-0.57,1.178-0.57t0.76,0.722q0,0.266-2.014,3.705t-2.242,4.313q1.558-1.71,4.674-4.598q4.674-4.332,6.156-4.332q0.456,0,0.836,0.266t0.38,0.589t-1.482,2.869q-1.444,2.622-1.596,3.116q4.218-3.534,4.218-3.572q3.572-2.774,5.13-2.774q0.456,0,0.855,0.285t0.399,0.665q0,0.076-2.47,3.211t-2.774,5.149q-0.076,0.684,0.266,1.026t1.235,0.342t2.622-1.235t3.515-3.325q0.684-0.76,0.931-0.76t0.247,0.19q0,0.266-0.342,0.608q-1.862,2.242-4.009,3.819t-3.363,1.577z M187.67122,63.294q-0.418,0-0.76-0.114q-2.432-0.684-2.432-2.736q0-2.66,3.344-6.156t6.004-3.496q0.874,0,1.425,0.475t0.551,1.159q0,2.128-3.211,4.066t-5.225,1.938q-0.304,0-0.532-0.076q-0.57,1.026-0.57,2.166q0,1.976,1.881,1.976t4.883-2.546q2.318-1.862,3.952-3.952q0.342-0.456,0.589-0.456t0.247,0.228t-0.304,0.646q-2.052,2.698-4.94,4.788t-4.902,2.09z M194.85322,52.35q0-0.456-0.969-0.456t-2.755,1.482q-2.394,1.976-3.724,4.142q0.228,0.076,0.494,0.076q1.444,0,3.857-1.539t3.021-3.363q0.076-0.19,0.076-0.342z M203.29568,50.792q1.026,0,1.026,0.798q0,0.228-0.114,0.456q-3.42,4.75-4.104,7.182q8.854-8.854,10.754-8.854q0.19-0.038,0.342-0.038q1.064,0,1.064,0.95q0,0.19-0.076,0.38t-1.52,2.052q-1.672,1.976-2.831,3.8t-1.159,3.04t0.532,1.216q1.672,0,5.814-4.598q0.076-0.076,0.266-0.342q0.57-0.684,0.684-0.684t0.114,0.38t-0.532,0.988q-4.712,5.358-6.688,5.358q-1.862,0-1.862-2.052t1.52-4.712l2.432-3.952q-2.584,1.9-4.598,4.161t-3.667,4.389t-1.919,2.128q-0.57,0-0.893-0.475t-0.323-1.178t0.494-1.881t1.254-2.85l-2.28,2.394q-0.836,0.836-1.045,0.836t-0.209-0.247t0.304-0.551q1.406-1.406,2.432-2.698q0.988-1.292,4.066-4.94q0.342-0.456,0.722-0.456z M224.08814,50.564l5.472-0.076q0.114,0.076,0.114,0.114q0,0.342-4.731,0.95t-5.111,0.722q-0.722,0.646-2.66,3.857t-1.938,4.693q0,1.406,1.938,1.406q0.912,0,2.394-0.57t2.28-1.064q2.128-1.33,4.56-3.914q0.532-0.532,0.722-0.532q0.114,0,0.114,0.228t-0.57,0.912q-1.976,2.432-4.446,3.914q-2.964,1.824-5.662,1.824q-1.178,0-1.919-0.513t-0.741-2.071t1.368-4.275t2.09-4.047q-0.532,0.114-0.912,0.114q-1.102,0-1.102-0.874q0-0.646,0.912-0.912q0.114,0,0.342-0.038l2.204,0q0.684-0.874,1.558-2.014q1.064-1.368,1.444-1.368t0.95,0.304t0.57,0.722t-1.824,2.47q0.988,0.038,2.584,0.038z M234.1266,62.23q-1.102,0.646-2.717,0.646t-2.47-1.064t-1.463-3.382q-0.684,0.684-0.95,0.684q-0.19,0-0.19-0.266t0.19-0.456q1.254-1.558,4.256-4.484l4.788-4.484q2.052-1.938,2.432-1.938q1.216,0,1.216,0.912q0,0.456-0.361,0.893t-0.532,0.684t-0.361,0.475q-0.684,1.178-1.387,4.864t-1.083,5.13q3.154-0.038,6.498-4.104q0.38-0.38,0.57-0.38t0.19,0.247t-0.342,0.665q-2.204,2.584-4.104,3.61q-1.14,0.57-2.964,0.95z M228.9966,58.012q0,1.292,0.855,2.109t1.919,0.817t1.634-0.418q0.76-0.418,1.501-3.496t0.893-5.434l0.152-1.292q-2.09,1.558-4.465,4.028t-2.451,3.268q-0.038,0.228-0.038,0.418z M262.41152,64.548q0-1.064,4.37-8.246q-3.116,0-4.142,0.266q-1.71,0.418-2.546,1.71q-0.304,0.418-0.513,0.456t-0.209-0.171t0.152-0.361q1.444-1.938,2.85-2.66t4.446-0.722l0.912,0q2.318-3.534,6.498-10.488q1.558-2.926,1.558-4.75q0-2.926-3.572-2.964l-0.418,0q-4.864,0-8.854,2.432t-6.308,6.042t-2.318,6.498q0,3.534,3.306,3.534q2.622,0,4.484-2.318t1.862-4.408q0-1.178-0.608-1.938q-0.076-0.076-0.076-0.19q0-0.266,0.304-0.266q0.152,0,0.228,0.114q0.76,0.988,0.76,2.356q0,2.318-1.9,4.731t-3.99,2.679q-0.646,0.114-1.254,0.114q-2.432,0-3.762-1.558q-1.292-1.406-1.292-3.8q0-0.988,0.228-2.014q1.14-5.13,6.593-8.968t12.255-3.838q2.622,0,4.503,1.121t1.881,3.135t-1.406,4.256l-6.878,10.564q1.216,0.038,4.351,0.361t4.712,0.323t2.109-0.038l1.444-2.394q3.686-6.194,8.531-11.571t8.455-6.669q0.114-0.038,0.228-0.038q0.266,0,0.266,0.304q0,0.114-0.114,0.19q-2.432,1.368-6.973,6.631t-7.847,10.811l-1.482,2.508q1.748-0.228,2.508-0.874q0.152-0.114,0.266,0.133t-0.038,0.361q-1.14,0.874-3.23,1.254q-2.66,4.94-2.66,6.954q0,1.292,1.102,1.292q0.76,0,1.767-0.513t1.349-0.874t0.418-0.361t0.038,0.247t-0.152,0.399q-0.646,0.608-1.938,1.292t-2.09,0.684t-1.178-0.266q-1.216-0.798-1.216-2.774t2.014-5.776q-1.406,0.114-2.622,0.114q-0.418,0-8.93-0.266q-2.698,4.256-4.332,7.752q-0.494,1.026-1.197,1.026t-0.703-0.57z M291.41198,63.294q-0.418,0-0.76-0.114q-2.432-0.684-2.432-2.736q0-2.66,3.344-6.156t6.004-3.496q0.874,0,1.425,0.475t0.551,1.159q0,2.128-3.211,4.066t-5.225,1.938q-0.304,0-0.532-0.076q-0.57,1.026-0.57,2.166q0,1.976,1.881,1.976t4.883-2.546q2.318-1.862,3.952-3.952q0.342-0.456,0.589-0.456t0.247,0.228t-0.304,0.646q-2.052,2.698-4.94,4.788t-4.902,2.09z M298.59398,52.35q0-0.456-0.969-0.456t-2.755,1.482q-2.394,1.976-3.724,4.142q0.228,0.076,0.494,0.076q1.444,0,3.857-1.539t3.021-3.363q0.076-0.19,0.076-0.342z M308.67044,62.99q-2.85,0-2.85-3.154q0-1.596,0.836-3.496t1.824-3.192q-0.19,0.038-0.494,0.038q-0.912,0-1.52-1.292l-2.812,3.648q-2.356,2.926-2.736,2.926q-0.19,0-0.19-0.152q0-0.38,0.646-1.102q3.306-3.838,4.674-6.498q0.874-3.306,2.204-3.306q0.874,0,0.874,0.76t-0.95,1.938l-0.912,1.216q0,0.798,1.178,0.798q0.684,0,1.52-0.494l0.988-0.608q0.076-0.038,0.38-0.038t0.646,0.38t0.228,0.684l-2.622,3.306q-2.432,3.116-2.432,4.921t1.672,1.805q1.748,0,4.294-1.862q1.52-1.102,2.774-2.47q1.178-1.368,1.292-1.368q0.266,0,0.266,0.285t-0.342,0.665l-1.216,1.368q-1.026,1.064-2.28,2.052q-3.002,2.242-4.94,2.242z M327.4869,54.744q0,1.33-2.546,4.446q-3.002,3.686-5.13,3.686l-0.608,0q-0.988,0-1.558-1.026q-0.456-0.722-0.456-1.596q0-2.28,3.325-6.403t5.377-4.123q1.938,0,1.938,2.052q0,0.532-0.19,1.368q0.038,0.114,0.722,0.114t2.09-0.722q-0.038,0.646-3.002,1.862q0.038,0.152,0.038,0.342z M325.0169,52.768q-1.292,0-3.667,3.04t-2.375,4.484t0.912,1.444q1.634,0,4.142-2.964t2.508-4.256q-0.608-0.342-1.52-1.748z"/><path fill="#" d=""/></svg>
